HIERARCHY
ROOT Hips
{
  OFFSET 184.571 101.689 6.99006
  CHANNELS 6 Xposition Yposition Zposition Zrotation Xrotation Yrotation
  JOINT Spine
  {
    OFFSET 0 6.79576 0
    CHANNELS 6 Xposition Yposition Zposition Zrotation Xrotation Yrotation
    JOINT Spine1
    {
      OFFSET 0 6.79575 0
      CHANNELS 6 Xposition Yposition Zposition Zrotation Xrotation Yrotation
      JOINT Spine2
      {
        OFFSET 0 6.79575 0
        CHANNELS 6 Xposition Yposition Zposition Zrotation Xrotation Yrotation
        JOINT Spine3
        {
          OFFSET 0 6.79575 0
          CHANNELS 6 Xposition Yposition Zposition Zrotation Xrotation Yrotation
          JOINT Neck
          {
            OFFSET -9.25391e-05 14.441 -0.000277691
            CHANNELS 6 Xposition Yposition Zposition Zrotation Xrotation Yrotation
            JOINT Head
            {
              OFFSET 0 9.17427 0
              CHANNELS 6 Xposition Yposition Zposition Zrotation Xrotation Yrotation
              End Site
              {
                OFFSET 0 17.2017 0
              }
            }
          }
          JOINT LeftShoulder
          {
            OFFSET 4.99989 17 -0.000516942
            CHANNELS 6 Xposition Yposition Zposition Zrotation Xrotation Yrotation
            JOINT LeftShoulder2
            {
              OFFSET 6.5 0 0
              CHANNELS 6 Xposition Yposition Zposition Zrotation Xrotation Yrotation
              JOINT LeftArm
              {
                OFFSET 6.5 -1.26295e-05 0.000212689
                CHANNELS 6 Xposition Yposition Zposition Zrotation Xrotation Yrotation
                JOINT LeftForeArm
                {
                  OFFSET -2.87388e-05 -37.9535 -2
                  CHANNELS 6 Xposition Yposition Zposition Zrotation Xrotation Yrotation
                  JOINT LeftHand
                  {
                    OFFSET 0 -30.0465 2
                    CHANNELS 6 Xposition Yposition Zposition Zrotation Xrotation Yrotation
                    JOINT LeftHandThumb1
                    {
                      OFFSET -0.500002 -1.49999 2.65
                      CHANNELS 6 Xposition Yposition Zposition Zrotation Xrotation Yrotation
                      JOINT LeftHandThumb2
                      {
                        OFFSET 0 -3.8 3.7
                        CHANNELS 6 Xposition Yposition Zposition Zrotation Xrotation Yrotation
                        JOINT LeftHandThumb3
                        {
                          OFFSET 0 -3 2.7
                          CHANNELS 6 Xposition Yposition Zposition Zrotation Xrotation Yrotation
                          End Site
                          {
                            OFFSET -1.21387e-05 -2.29999 1.79999
                          }
                        }
                      }
                    }
                    JOINT LeftHandIndex
                    {
                      OFFSET 0 -1.9 1.6
                      CHANNELS 6 Xposition Yposition Zposition Zrotation Xrotation Yrotation
                      JOINT LeftHandIndex1
                      {
                        OFFSET 0 -8.3 1.89999
                        CHANNELS 6 Xposition Yposition Zposition Zrotation Xrotation Yrotation
                        JOINT LeftHandIndex2
                        {
                          OFFSET -1.12986e-05 -4.5 0
                          CHANNELS 6 Xposition Yposition Zposition Zrotation Xrotation Yrotation
                          JOINT LeftHandIndex3
                          {
                            OFFSET 1.5026e-05 -3.4 0
                            CHANNELS 6 Xposition Yposition Zposition Zrotation Xrotation Yrotation
                            End Site
                            {
                              OFFSET 0 -2.6 0
                            }
                          }
                        }
                      }
                    }
                    JOINT LeftHandMiddle
                    {
                      OFFSET -0.250003 -2.2 0.399997
                      CHANNELS 6 Xposition Yposition Zposition Zrotation Xrotation Yrotation
                      JOINT LeftHandMiddle1
                      {
                        OFFSET 0 -8.3 1.00001
                        CHANNELS 6 Xposition Yposition Zposition Zrotation Xrotation Yrotation
                        JOINT LeftHandMiddle2
                        {
                          OFFSET 0 -4.65 0
                          CHANNELS 6 Xposition Yposition Zposition Zrotation Xrotation Yrotation
                          JOINT LeftHandMiddle3
                          {
                            OFFSET 0 -3.3 0
                            CHANNELS 6 Xposition Yposition Zposition Zrotation Xrotation Yrotation
                            End Site
                            {
                              OFFSET 0 -2.7 0
                            }
                          }
                        }
                      }
                    }
                    JOINT LeftHandRing
                    {
                      OFFSET -0.500009 -2.14999 -0.8
                      CHANNELS 6 Xposition Yposition Zposition Zrotation Xrotation Yrotation
                      JOINT LeftHandRing1
                      {
                        OFFSET 0 -7.75 -0.199997
                        CHANNELS 6 Xposition Yposition Zposition Zrotation Xrotation Yrotation
                        JOINT LeftHandRing2
                        {
                          OFFSET 0 -3.8 0
                          CHANNELS 6 Xposition Yposition Zposition Zrotation Xrotation Yrotation
                          JOINT LeftHandRing3
                          {
                            OFFSET 1.21201e-05 -3.4 0
                            CHANNELS 6 Xposition Yposition Zposition Zrotation Xrotation Yrotation
                            End Site
                            {
                              OFFSET 0 -2.60001 0
                            }
                          }
                        }
                      }
                    }
                    JOINT LeftHandPinky
                    {
                      OFFSET -0.749994 -1.75 -1.85
                      CHANNELS 6 Xposition Yposition Zposition Zrotation Xrotation Yrotation
                      JOINT LeftHandPinky1
                      {
                        OFFSET 0 -7.15 -1
                        CHANNELS 6 Xposition Yposition Zposition Zrotation Xrotation Yrotation
                        JOINT LeftHandPinky2
                        {
                          OFFSET 0 -3 0
                          CHANNELS 6 Xposition Yposition Zposition Zrotation Xrotation Yrotation
                          JOINT LeftHandPinky3
                          {
                            OFFSET 0 -2.34999 0
                            CHANNELS 6 Xposition Yposition Zposition Zrotation Xrotation Yrotation
                            End Site
                            {
                              OFFSET 0 -2.1 0
                            }
                          }
                        }
                      }
                    }
                  }
                }
              }
            }
          }
          JOINT RightShoulder
          {
            OFFSET -5.00011 17 -0.000138022
            CHANNELS 6 Xposition Yposition Zposition Zrotation Xrotation Yrotation
            JOINT RightShoulder2
            {
              OFFSET -6.5 0 0
              CHANNELS 6 Xposition Yposition Zposition Zrotation Xrotation Yrotation
              JOINT RightArm
              {
                OFFSET -6.49999 1.07465e-05 -3.00535e-05
                CHANNELS 6 Xposition Yposition Zposition Zrotation Xrotation Yrotation
                JOINT RightForeArm
                {
                  OFFSET 0 -37.9535 -2
                  CHANNELS 6 Xposition Yposition Zposition Zrotation Xrotation Yrotation
                  JOINT RightHand
                  {
                    OFFSET 0 -30.0465 2
                    CHANNELS 6 Xposition Yposition Zposition Zrotation Xrotation Yrotation
                    JOINT RightHandThumb1
                    {
                      OFFSET 0.500002 -1.50001 2.65
                      CHANNELS 6 Xposition Yposition Zposition Zrotation Xrotation Yrotation
                      JOINT RightHandThumb2
                      {
                        OFFSET 0 -3.8 3.7
                        CHANNELS 6 Xposition Yposition Zposition Zrotation Xrotation Yrotation
                        JOINT RightHandThumb3
                        {
                          OFFSET -1.58701e-05 -3.00001 2.70001
                          CHANNELS 6 Xposition Yposition Zposition Zrotation Xrotation Yrotation
                          End Site
                          {
                            OFFSET 0 -2.29999 1.79999
                          }
                        }
                      }
                    }
                    JOINT RightHandIndex
                    {
                      OFFSET 0 -1.9 1.6
                      CHANNELS 6 Xposition Yposition Zposition Zrotation Xrotation Yrotation
                      JOINT RightHandIndex1
                      {
                        OFFSET 0 -8.30001 1.89999
                        CHANNELS 6 Xposition Yposition Zposition Zrotation Xrotation Yrotation
                        JOINT RightHandIndex2
                        {
                          OFFSET 0 -4.50001 0
                          CHANNELS 6 Xposition Yposition Zposition Zrotation Xrotation Yrotation
                          JOINT RightHandIndex3
                          {
                            OFFSET 0 -3.4 0
                            CHANNELS 6 Xposition Yposition Zposition Zrotation Xrotation Yrotation
                            End Site
                            {
                              OFFSET 1.0738e-05 -2.59999 0
                            }
                          }
                        }
                      }
                    }
                    JOINT RightHandMiddle
                    {
                      OFFSET 0.249991 -2.2 0.400002
                      CHANNELS 6 Xposition Yposition Zposition Zrotation Xrotation Yrotation
                      JOINT RightHandMiddle1
                      {
                        OFFSET 1.215e-05 -8.29999 0.999994
                        CHANNELS 6 Xposition Yposition Zposition Zrotation Xrotation Yrotation
                        JOINT RightHandMiddle2
                        {
                          OFFSET 0 -4.65001 0
                          CHANNELS 6 Xposition Yposition Zposition Zrotation Xrotation Yrotation
                          JOINT RightHandMiddle3
                          {
                            OFFSET 0 -3.29999 0
                            CHANNELS 6 Xposition Yposition Zposition Zrotation Xrotation Yrotation
                            End Site
                            {
                              OFFSET 1.65007e-05 -2.70001 0
                            }
                          }
                        }
                      }
                    }
                    JOINT RightHandRing
                    {
                      OFFSET 0.500003 -2.15001 -0.799998
                      CHANNELS 6 Xposition Yposition Zposition Zrotation Xrotation Yrotation
                      JOINT RightHandRing1
                      {
                        OFFSET 0 -7.75 -0.200002
                        CHANNELS 6 Xposition Yposition Zposition Zrotation Xrotation Yrotation
                        JOINT RightHandRing2
                        {
                          OFFSET 0 -3.8 0
                          CHANNELS 6 Xposition Yposition Zposition Zrotation Xrotation Yrotation
                          JOINT RightHandRing3
                          {
                            OFFSET 0 -3.40001 0
                            CHANNELS 6 Xposition Yposition Zposition Zrotation Xrotation Yrotation
                            End Site
                            {
                              OFFSET 0 -2.6 0
                            }
                          }
                        }
                      }
                    }
                    JOINT RightHandPinky
                    {
                      OFFSET 0.749994 -1.75 -1.85
                      CHANNELS 6 Xposition Yposition Zposition Zrotation Xrotation Yrotation
                      JOINT RightHandPinky1
                      {
                        OFFSET 0 -7.15 -0.999999
                        CHANNELS 6 Xposition Yposition Zposition Zrotation Xrotation Yrotation
                        JOINT RightHandPinky2
                        {
                          OFFSET 0 -3.00001 0
                          CHANNELS 6 Xposition Yposition Zposition Zrotation Xrotation Yrotation
                          JOINT RightHandPinky3
                          {
                            OFFSET 0 -2.34999 0
                            CHANNELS 6 Xposition Yposition Zposition Zrotation Xrotation Yrotation
                            End Site
                            {
                              OFFSET 0 -2.09999 0
                            }
                          }
                        }
                      }
                    }
                  }
                }
              }
            }
          }
        }
      }
    }
  }
  JOINT LeftUpLeg
  {
    OFFSET 10 0 0
    CHANNELS 6 Xposition Yposition Zposition Zrotation Xrotation Yrotation
    JOINT LeftLeg
    {
      OFFSET 0 -49.4477 -0.999998
      CHANNELS 6 Xposition Yposition Zposition Zrotation Xrotation Yrotation
      JOINT LeftFoot
      {
        OFFSET 0 -45.0524 -2
        CHANNELS 6 Xposition Yposition Zposition Zrotation Xrotation Yrotation
        JOINT LeftToeBase
        {
          OFFSET 0 -7.5 12.5
          CHANNELS 6 Xposition Yposition Zposition Zrotation Xrotation Yrotation
          JOINT LeftFootToe
          {
            OFFSET 0 0 4
            CHANNELS 6 Xposition Yposition Zposition Zrotation Xrotation Yrotation
            End Site
            {
              OFFSET 0 0 0
            }
          }
        }
      }
    }
  }
  JOINT RightUpLeg
  {
    OFFSET -10 0 0
    CHANNELS 6 Xposition Yposition Zposition Zrotation Xrotation Yrotation
    JOINT RightLeg
    {
      OFFSET 1.35724e-05 -49.4477 -0.999996
      CHANNELS 6 Xposition Yposition Zposition Zrotation Xrotation Yrotation
      JOINT RightFoot
      {
        OFFSET 1.20461e-05 -45.0524 -2
        CHANNELS 6 Xposition Yposition Zposition Zrotation Xrotation Yrotation
        JOINT RightToeBase
        {
          OFFSET 0 -7.5 12.5
          CHANNELS 6 Xposition Yposition Zposition Zrotation Xrotation Yrotation
          JOINT RightFootToe
          {
            OFFSET 0 0 4
            CHANNELS 6 Xposition Yposition Zposition Zrotation Xrotation Yrotation
            End Site
            {
              OFFSET 0 0 0
            }
          }
        }
      }
    }
  }
}
MOTION
Frames:	3
Frame Time:	0.0111111
184.557 101.69 6.97429 -1.82413 1.04497 -151.979 2.84217e-14 6.79575 -1.42109e-14 -1.08324 1.78798 3.54802 0 6.79575 1.42109e-14 0.0527137 -0.0826634 5.35911 0 6.79575 0 -0.0807734 0.169824 6.45451 2.84217e-14 6.79575 0 -0.0607533 0.78681 1.90298 2.84217e-14 14.441 -2.84217e-14 -0.997747 1.78363 8.86364 0 9.17427 0 -2.75109 3.89727 20.8471 5 17 0 0.00348306 -0.00825978 -2.81934 6.5 -2.84217e-14 0 -0.000714169 -0.00825811 -2.81466 6.5 0 0 14.5191 -9.72689 -1.99807 1.42109e-14 -37.9535 -2 -118.878 -59.3334 -89.6394 -2.84217e-14 -30.0465 2 25.4477 -6.87967 -17.2921 -0.5 -1.5 2.65 1.15511 -13.2005 2.63082 0 -3.8 3.7 0.0999722 11.6651 -0.0146823 0 -3 2.7 -0.00819142 -0.323439 -0.010992 -2.84217e-14 -1.9 1.6 9.54166e-15 3.18055e-15 -2.38542e-15 0 -8.3 1.9 -0.38625 -5.26814 -0.00842675 2.84217e-14 -4.5 -2.84217e-14 -0.000353395 0.00565485 1.15726e-05 0 -3.4 2.84217e-14 7.34292e-07 0.00558017 3.13997e-06 -0.25 -2.2 0.4 9.54166e-15 3.18055e-15 -2.38542e-15 -2.84217e-14 -8.3 1 -3.63322 -2.00489 -0.0527066 0 -4.65 -2.84217e-14 -8.27483e-05 -1.20304e-05 6.31966e-06 -2.84217e-14 -3.3 0 4.4378e-06 4.51688e-06 -8.71344e-07 -0.5 -2.15 -0.8 9.54166e-15 3.18055e-15 -2.38542e-15 0 -7.75 -0.2 -11.3739 -0.0769679 0.143352 5.68434e-14 -3.8 0 -2.20094e-05 2.14769e-06 3.07291e-07 0 -3.4 0 -4.32701e-06 5.635e-06 3.47641e-06 -0.75 -1.75 -1.85 9.54166e-15 3.18055e-15 -2.38542e-15 0 -7.15 -1 -3.28509 -11.6852 -0.0288803 2.84217e-14 -3 -2.84217e-14 -4.20684 -0.108049 -0.165975 0 -2.35 0 -3.97635 0.178777 0.00756073 -5 17 0 0.00125645 -0.00774046 2.74077 -6.5 2.84217e-14 0 0.000427872 -0.00718318 2.7391 -6.5 2.84217e-14 -2.84217e-14 -15.3624 -11.013 -2.15304 -2.84217e-14 -37.9535 -2 132.958 -60.6842 121.36 1.42109e-14 -30.0465 2 -6.9229 -5.89094 42.1904 0.5 -1.5 2.65 -3.13627 -6.32262 -4.57201 0 -3.8 3.7 0.231557 10.967 -0.0458364 2.84217e-14 -3 2.7 0.00836396 -1.15778 -0.0118388 0 -1.9 1.6 2.46389e-06 -1.02127e-05 1.64237e-06 0 -8.3 1.9 4.35602 -16.7854 0.479856 2.84217e-14 -4.5 1.42109e-14 0.000175697 0.00256744 0.000608117 0 -3.4 0 -6.99932e-07 0.00254889 -0.00512528 0.25 -2.2 0.4 2.46389e-06 -1.02127e-05 1.64237e-06 -2.84217e-14 -8.3 1 2.29729 -12.4663 0.0772829 0 -4.65 0 0.338652 -0.00453905 0.000852787 -2.84217e-14 -3.3 -1.42109e-14 0.218503 0.0378062 0.00275087 0.5 -2.15 -0.8 2.46389e-06 -1.02127e-05 1.64237e-06 0 -7.75 -0.2 3.47224 -14.9957 0.0640626 0 -3.8 0 0.0636479 0.0031002 0.00115621 -2.84217e-14 -3.4 0 2.53838e-06 0.367582 -0.00121671 0.75 -1.75 -1.85 2.46389e-06 -1.02127e-05 1.64237e-06 0 -7.15 -1 4.12919 -16.1055 -0.0423029 0 -3 0 6.17986e-06 -0.00205361 -0.00238861 2.84217e-14 -2.35 1.42109e-14 -7.79397e-06 -0.00180145 -0.00215921 10 1.42109e-14 0 0.86741 -31.7119 -9.19075 0 -49.4477 -1 3.61676 46.2223 -15.9963 2.84217e-14 -45.0523 -2 -5.44064 -15.5118 33.3253 0 -7.5 12.5 -3.30998e-06 -5.09729e-07 2.19639e-08 2.84217e-14 0 4 0.303511 -1.94177 0.0087149 -10 0 0 -13.4814 -10.6052 -4.38501 2.84217e-14 -49.4477 -1 0.209798 17.7455 -2.08779 2.84217e-14 -45.0523 -2 6.42429 -0.0331421 19.5106 2.84217e-14 -7.5 12.5 -3.31043e-32 -1.98785e-16 -9.54166e-15 0 3.55271e-15 4 -7.51388 0.0174161 -0.606902 
184.334 101.719 6.58816 -1.70825 1.10343 -151.29 0 6.79575 1.42109e-14 -0.948642 1.79099 3.48959 -2.84217e-14 6.79575 1.42109e-14 0.0458418 -0.0793223 5.3298 -2.84217e-14 6.79575 0 -0.0881982 0.169822 6.46021 0 6.79575 0 -0.0539176 0.783873 1.92558 0 14.441 0 -1.0681 1.84887 8.85005 -1.42109e-14 9.17427 -2.84217e-14 -2.93004 4.03209 20.8217 5 17 0 0.00348836 -0.00826004 -2.78256 6.5 0 -2.84217e-14 -0.000706738 -0.00825397 -2.77974 6.5 -2.84217e-14 -1.42109e-14 14.4693 -9.56857 -2.15658 1.42109e-14 -37.9535 -2 -119.131 -59.0446 -89.827 0 -30.0465 2 25.4596 -6.85741 -17.2444 -0.5 -1.5 2.65 1.18223 -13.268 2.66841 -2.84217e-14 -3.8 3.7 0.0976241 11.5752 -0.0160013 0 -3 2.7 -0.00819142 -0.323451 -0.010992 -2.84217e-14 -1.9 1.6 2.20695e-31 3.18055e-15 -3.97569e-15 -2.84217e-14 -8.3 1.9 -0.396716 -5.33932 -0.00842772 0 -4.5 -2.84217e-14 -0.000353395 0.00565485 1.15726e-05 -2.84217e-14 -3.4 0 7.34292e-07 0.00558017 3.13997e-06 -0.25 -2.2 0.4 2.20695e-31 3.18055e-15 -3.97569e-15 -2.84217e-14 -8.3 1 -3.6512 -2.03613 -0.0527076 0 -4.65 0 -8.27483e-05 -1.20304e-05 6.31966e-06 0 -3.3 -2.84217e-14 4.4378e-06 4.51688e-06 -8.71344e-07 -0.5 -2.15 -0.8 2.20695e-31 3.18055e-15 -3.97569e-15 0 -7.75 -0.2 -11.4228 -0.0895653 0.143352 0 -3.8 -2.84217e-14 -2.20094e-05 2.14769e-06 3.07291e-07 0 -3.4 0 -4.32701e-06 5.635e-06 3.47641e-06 -0.75 -1.75 -1.85 2.20695e-31 3.18055e-15 -3.97569e-15 0 -7.15 -1 -3.25146 -11.7017 -0.0257215 -2.84217e-14 -3 0 -4.23911 -0.108049 -0.165975 2.84217e-14 -2.35 0 -4.00516 0.178777 0.00756073 -5 17 -2.84217e-14 0.00125075 -0.00774073 2.69853 -6.5 2.84217e-14 -2.84217e-14 0.000428566 -0.00716786 2.6974 -6.5 -2.84217e-14 0 -15.3822 -10.8218 -2.18268 0 -37.9535 -2 132.768 -60.8164 121.238 0 -30.0465 2 -6.59509 -6.07133 42.5 0.5 -1.5 2.65 -3.18033 -6.34829 -4.70741 -2.84217e-14 -3.8 3.7 0.231586 11.0022 -0.0458419 0 -3 2.7 0.00837307 -1.11371 -0.0118386 -2.84217e-14 -1.9 1.6 2.46389e-06 -1.02127e-05 1.64237e-06 2.84217e-14 -8.3 1.9 4.45265 -16.9507 0.496808 -2.84217e-14 -4.5 -2.84217e-14 0.000175697 0.00256744 0.000608117 0 -3.4 0 -6.99932e-07 0.00254889 -0.00512528 0.25 -2.2 0.4 2.46389e-06 -1.02127e-05 1.64237e-06 2.84217e-14 -8.3 1 2.33904 -12.5727 0.0810726 0 -4.65 -1.42109e-14 0.280083 -0.00453905 0.000852787 -2.84217e-14 -3.3 1.42109e-14 0.160421 0.0378062 0.00275087 0.5 -2.15 -0.8 2.46389e-06 -1.02127e-05 1.64237e-06 0 -7.75 -0.2 3.53619 -15.1193 0.0688926 0 -3.8 -1.42109e-14 0.0636479 0.0031002 0.00115621 2.84217e-14 -3.4 -1.42109e-14 2.53838e-06 0.367582 -0.00121671 0.75 -1.75 -1.85 2.46389e-06 -1.02127e-05 1.64237e-06 0 -7.15 -1 4.20399 -16.2331 -0.0383518 0 -3 0 6.17986e-06 -0.00205361 -0.00238861 0 -2.35 -1.42109e-14 -7.79397e-06 -0.00180145 -0.00215921 10 1.42109e-14 1.42109e-14 0.788291 -31.6393 -9.42156 -2.84217e-14 -49.4477 -1 3.61996 46.3942 -15.9682 0 -45.0523 -2 -5.28467 -15.7093 32.927 0 -7.5 12.5 -3.30998e-06 -5.09729e-07 2.19639e-08 1.42109e-14 -1.77636e-15 4 0.397712 -1.93915 0.00897 -10 0 -1.42109e-14 -13.3726 -10.9612 -4.33108 0 -49.4477 -1 0.223509 18.3345 -2.11644 2.84217e-14 -45.0523 -2 6.13262 0.324732 20.916 2.84217e-14 -7.5 12.5 -1.98785e-16 -2.38542e-15 -9.54166e-15 -2.84217e-14 3.55271e-15 4 -7.56063 0.0239868 -0.716382 
184.12 101.747 6.20807 -1.5904 1.1655 -150.556 -2.84217e-14 6.79575 0 -0.808968 1.79365 3.41753 2.84217e-14 6.79575 0 0.0392878 -0.0765989 5.2921 -2.84217e-14 6.79575 -1.42109e-14 -0.0951034 0.169818 6.47079 0 6.79575 0 -0.0495855 0.78121 1.97875 1.42109e-14 14.441 2.84217e-14 -1.13881 1.92009 8.83911 0 9.17427 -2.84217e-14 -3.1114 4.18064 20.8032 5 17 2.84217e-14 0.00349306 -0.00826027 -2.74996 6.5 2.84217e-14 0 -0.000700006 -0.0082498 -2.7497 6.5 -2.84217e-14 2.84217e-14 14.4274 -9.42788 -2.30489 0 -37.9535 -2 -119.326 -58.7535 -89.9545 0 -30.0465 2 25.4898 -6.85637 -17.1887 -0.5 -1.5 2.65 1.23741 -13.3725 2.7275 -2.84217e-14 -3.8 3.7 0.0950445 11.4701 -0.0174504 -2.84217e-14 -3 2.7 -0.00819154 -0.32405 -0.010992 0 -1.9 1.6 6.36111e-15 3.18055e-15 1.59028e-15 0 -8.3 1.9 -0.408425 -5.41693 -0.0084288 -2.84217e-14 -4.5 0 -0.000353395 0.00565485 1.15726e-05 0 -3.4 0 7.34292e-07 0.00558017 3.13997e-06 -0.25 -2.2 0.4 6.36111e-15 3.18055e-15 1.59028e-15 0 -8.3 1 -3.65407 -2.06623 -0.0527086 0 -4.65 0 -8.27483e-05 -1.20304e-05 6.31966e-06 2.84217e-14 -3.3 -2.84217e-14 4.4378e-06 4.51688e-06 -8.71344e-07 -0.5 -2.15 -0.8 6.36111e-15 3.18055e-15 1.59028e-15 0 -7.75 -0.2 -11.4516 -0.0981228 0.143352 0 -3.8 -2.84217e-14 -2.20094e-05 2.14769e-06 3.07291e-07 0 -3.4 2.84217e-14 -4.32701e-06 5.635e-06 3.47641e-06 -0.75 -1.75 -1.85 6.36111e-15 3.18055e-15 1.59028e-15 0 -7.15 -1 -3.21172 -11.7136 -0.0218736 -2.84217e-14 -3 0 -4.2768 -0.108049 -0.165975 2.84217e-14 -2.35 0 -4.03872 0.178777 0.00756073 -5 17 -2.84217e-14 0.00124516 -0.00774099 2.65719 -6.5 0 -2.84217e-14 0.000429468 -0.00715279 2.65705 -6.5 0 -2.84217e-14 -15.4004 -10.6353 -2.22931 0 -37.9535 -2 132.556 -60.9503 121.097 -1.42109e-14 -30.0465 2 -6.28321 -6.21556 42.7927 0.5 -1.5 2.65 -3.22038 -6.35796 -4.81933 -2.84217e-14 -3.8 3.7 0.231616 11.039 -0.0458476 0 -3 2.7 0.00838054 -1.07754 -0.0118385 0 -1.9 1.6 2.46389e-06 -1.02127e-05 1.64237e-06 2.84217e-14 -8.3 1.9 4.5409 -17.1009 0.512532 0 -4.5 1.42109e-14 0.000175697 0.00256744 0.000608117 2.84217e-14 -3.4 0 -6.99932e-07 0.00254889 -0.00512528 0.25 -2.2 0.4 2.46389e-06 -1.02127e-05 1.64237e-06 0 -8.3 1 2.37562 -12.6658 0.0841347 -2.84217e-14 -4.65 1.42109e-14 0.241492 -0.00453905 0.000852787 -2.84217e-14 -3.3 1.42109e-14 0.122156 0.0378062 0.00275087 0.5 -2.15 -0.8 2.46389e-06 -1.02127e-05 1.64237e-06 0 -7.75 -0.2 3.59569 -15.2339 0.0733088 0 -3.8 2.84217e-14 0.0636479 0.0031002 0.00115621 0 -3.4 0 2.53838e-06 0.367582 -0.00121671 0.75 -1.75 -1.85 2.46389e-06 -1.02127e-05 1.64237e-06 -2.84217e-14 -7.15 -1 4.26963 -16.3447 -0.0348072 0 -3 0 6.17986e-06 -0.00205361 -0.00238861 0 -2.35 -1.42109e-14 -7.79397e-06 -0.00180145 -0.00215921 10 0 1.42109e-14 0.704974 -31.5763 -9.67867 0 -49.4477 -1 3.6177 46.5566 -15.9344 5.68434e-14 -45.0523 -2 -5.13746 -15.89 32.5166 1.42109e-14 -7.5 12.5 -3.30998e-06 -5.09729e-07 2.19639e-08 -1.42109e-14 -1.77636e-15 4 0.506721 -1.9328 0.00889969 -10 1.42109e-14 -1.42109e-14 -13.2381 -11.2855 -4.19668 2.84217e-14 -49.4477 -1 0.236242 18.8635 -2.13851 2.84217e-14 -45.0523 -2 5.8274 0.659929 22.3039 0 -7.5 12.5 -3.31043e-31 -1.98785e-15 -9.54166e-15 0 0 4 -7.59811 0.031169 -0.812431 
